#!OML:ASF X:\für Bonn\!DataBase\2005_08_10_Bjorn_Final\c3d\bjorn.ASF
:FULLY-SPECIFIED
:DEGREES
78
root -9.09719 18.3588 0.325345 711.205 79.5596 -6.78467
lowerback -1.82452 -1.99793 6.14144
upperback 11.5454 -3.2867 5.16421
thorax 13.6317 -1.05807 1.89385
lowerneck 8.64217 2.75062 1.19244
upperneck 14.7657 6.21556 -15.5526
head 3.44938 3.00294 -4.96409
rclavicle 2.94201e-014 -9.54166e-015
rhumerus -19.5451 -5.98598 -79.2141
rradius 46.8389
rwrist 0.444705
rhand -9.58151 13.3945
rfingers 7.12502
rthumb 16.3866 -15.9333
lclavicle 2.94201e-014 -9.54166e-015
lhumerus -31.6707 -10.4081 69.349
lradius 39.3126
lwrist -20.5049
lhand -30.8353 -13.8937
lfingers 7.12502
lthumb -4.12412 16.0462
rfemur -0.966525 5.61437 18.7618
rtibia 36.3443
rfoot -28.5501 14.2302
rtoes -9.23294
lfemur -31.1699 9.12935 -8.57918
ltibia 35.2206
lfoot 3.88948 -1.78445
ltoes -15.6272
79
root -9.02388 18.3758 0.296652 710.884 79.457 -7.38705
lowerback -1.80642 -1.9104 6.13806
upperback 11.5059 -3.16252 5.12046
thorax 13.5694 -0.999267 1.86139
lowerneck 8.64708 2.7217 1.18495
upperneck 14.6938 6.14796 -15.4607
head 3.41867 2.9727 -4.93408
rclavicle -7.95139e-015 4.77083e-015
rhumerus -19.752 -6.24253 -79.2506
rradius 46.7609
rwrist 0.504218
rhand -9.43672 13.3841
rfingers 7.12502
rthumb 16.526 -15.9321
lclavicle -7.95139e-015 4.77083e-015
lhumerus -31.6887 -10.6131 69.348
lradius 39.3156
lwrist -20.4392
lhand -30.9324 -13.9551
lfingers 7.12502
lthumb -4.21785 15.9829
rfemur -0.77257 5.54682 18.6842
rtibia 35.77
rfoot -28.3024 14.5302
rtoes -8.94346
lfemur -31.234 9.22463 -8.61315
ltibia 35.2819
lfoot 3.74123 -1.79996
ltoes -14.9195
80
root -8.9503 18.3932 0.266672 710.65 79.3936 -7.9032
lowerback -1.79975 -1.82253 6.12783
upperback 11.4729 -3.03693 5.05268
thorax 13.5209 -0.938604 1.80624
lowerneck 8.6571 2.67136 1.26213
upperneck 14.6081 6.06004 -15.4232
head 3.38365 2.93598 -4.93621
rclavicle 2.38542e-015 -2.38542e-014
rhumerus -19.9252 -6.50485 -79.2956
rradius 46.6338
rwrist 0.521893
rhand -9.34548 13.4288
rfingers 7.12502
rthumb 16.6139 -15.8801
lclavicle 2.38542e-015 -2.38542e-014
lhumerus -31.6694 -10.8427 69.3158
lradius 39.3095
lwrist -20.4405
lhand -31.0393 -14.0252
lfingers 7.12502
lthumb -4.32111 15.9107
rfemur -0.578141 5.42151 18.5771
rtibia 35.1972
rfoot -28.0387 14.7981
rtoes -8.84812
lfemur -31.3073 9.28411 -8.67795
ltibia 35.344
lfoot 3.57435 -1.85844
ltoes -14.4046
81
root -8.87656 18.4116 0.236861 710.552 79.3223 -8.29267
lowerback -1.80739 -1.72774 6.06314
upperback 11.4568 -2.90009 4.99075
thorax 13.5048 -0.877985 1.78965
lowerneck 8.58398 2.62963 1.30991
upperneck 14.5804 5.98536 -15.3241
head 3.37931 2.89895 -4.91161
rclavicle -6.36111e-015 -4.45278e-014
rhumerus -20.0733 -6.77103 -79.3441
rradius 46.5151
rwrist 0.577001
rhand -9.30013 13.5088
rfingers 7.12502
rthumb 16.6575 -15.7965
lclavicle -6.36111e-015 -4.45278e-014
lhumerus -31.5884 -10.9918 69.2946
lradius 39.2779
lwrist -20.4552
lhand -31.1051 -14.1226
lfingers 7.12502
lthumb -4.38466 15.812
rfemur -0.388243 5.3441 18.4533
rtibia 34.6215
rfoot -27.7458 15.0714
rtoes -8.61436
lfemur -31.4004 9.37975 -8.77176
ltibia 35.4009
lfoot 3.42471 -1.89519
ltoes -13.7118
82
root -8.80157 18.4305 0.205277 710.354 79.247 -8.78282
lowerback -1.81381 -1.63872 6.00745
upperback 11.4365 -2.77272 4.94592
thorax 13.4839 -0.822081 1.7858
lowerneck 8.53087 2.57117 1.37302
upperneck 14.553 5.90005 -15.3032
head 3.37253 2.85752 -4.91526
rclavicle 9.54166e-015 6.04305e-014
rhumerus -20.2233 -7.01407 -79.369
rradius 46.3981
rwrist 0.702586
rhand -9.26465 13.5673
rfingers 7.12502
rthumb 16.6917 -15.7351
lclavicle 9.54166e-015 6.04305e-014
lhumerus -31.5328 -11.0671 69.2883
lradius 39.2388
lwrist -20.5907
lhand -31.2172 -14.2224
lfingers 7.12502
lthumb -4.49291 15.7099
rfemur -0.203554 5.24697 18.3377
rtibia 34.0493
rfoot -27.4113 15.3548
rtoes -8.32113
lfemur -31.4848 9.42075 -8.83916
ltibia 35.4576
lfoot 3.255 -1.91975
ltoes -13.1251
83
root -8.72782 18.4486 0.173885 710.231 79.1971 -9.1764
lowerback -1.79117 -1.55287 5.90325
upperback 11.4227 -2.64208 4.89753
thorax 13.4537 -0.769527 1.80577
lowerneck 8.53387 2.51116 1.44661
upperneck 14.4474 5.79454 -15.261
head 3.33093 2.81221 -4.91516
rclavicle -3.89618e-014 6.36111e-015
rhumerus -20.3633 -7.21381 -79.3921
rradius 46.298
rwrist 0.812267
rhand -9.28919 13.6518
rfingers 7.12502
rthumb 16.668 -15.6525
lclavicle -3.89618e-014 6.36111e-015
lhumerus -31.4589 -11.2109 69.2818
lradius 39.2245
lwrist -20.6191
lhand -31.2934 -14.3233
lfingers 7.12502
lthumb -4.56642 15.6075
rfemur -0.00297783 5.16179 18.2131
rtibia 33.4889
rfoot -27.06 15.6159
rtoes -8.09604
lfemur -31.5658 9.49236 -8.93419
ltibia 35.5051
lfoot 3.08449 -1.97397
ltoes -12.5593
84
root -8.65348 18.4671 0.141616 710.123 79.1584 -9.57549
lowerback -1.79389 -1.4782 5.79182
upperback 11.4151 -2.5295 4.85675
thorax 13.4474 -0.726333 1.83598
lowerneck 8.4869 2.47026 1.46733
upperneck 14.373 5.71615 -15.1966
head 3.3082 2.77462 -4.89752
rclavicle 3.97569e-015 2.54444e-014
rhumerus -20.4355 -7.46076 -79.4143
rradius 46.1429
rwrist 0.939719
rhand -9.29633 13.7438
rfingers 7.12502
rthumb 16.6612 -15.5612
lclavicle 3.97569e-015 2.54444e-014
lhumerus -31.3536 -11.2979 69.27
lradius 39.1769
lwrist -20.6298
lhand -31.3767 -14.5337
lfingers 7.12502
lthumb -4.64687 15.3954
rfemur 0.175821 5.05292 18.0777
rtibia 32.9335
rfoot -26.7079 15.8627
rtoes -8.03674
lfemur -31.6722 9.5295 -9.03848
ltibia 35.549
lfoot 2.92701 -2.02051
ltoes -12.0282
85
root -8.57921 18.4859 0.108952 710.112 79.1352 -9.87706
lowerback -1.78718 -1.39957 5.64653
upperback 11.3942 -2.40707 4.80794
thorax 13.4193 -0.682372 1.87671
lowerneck 8.49036 2.41069 1.56841
upperneck 14.2698 5.61537 -15.1708
head 3.2685 2.73234 -4.90726
rclavicle 1.59028e-014 3.18055e-014
rhumerus -20.5387 -7.7495 -79.4352
rradius 45.9882
rwrist 1.13485
rhand -9.30608 13.8337
rfingers 7.12502
rthumb 16.6518 -15.472
lclavicle 1.59028e-014 3.18055e-014
lhumerus -31.2937 -11.3882 69.2341
lradius 39.1873
lwrist -20.6933
lhand -31.4298 -14.7054
lfingers 7.12502
lthumb -4.69815 15.2225
rfemur 0.34612 4.92912 17.9183
rtibia 32.3934
rfoot -26.3107 16.1325
rtoes -7.78061
lfemur -31.7801 9.57606 -9.1673
ltibia 35.5865
lfoot 2.7613 -2.06537
ltoes -11.3606
86
root -8.50358 18.5054 0.0747115 710.189 79.1143 -10.0683
lowerback -1.75342 -1.32516 5.49567
upperback 11.3693 -2.28575 4.74165
thorax 13.368 -0.638751 1.90092
lowerneck 8.55197 2.35927 1.66745
upperneck 14.1199 5.51556 -15.1355
head 3.20517 2.69487 -4.91472
rclavicle -7.95139e-016 0
rhumerus -20.6406 -8.03429 -79.4632
rradius 45.8177
rwrist 1.28249
rhand -9.31575 13.9421
rfingers 7.12502
rthumb 16.6425 -15.3644
lclavicle -7.95139e-016 0
lhumerus -31.246 -11.5081 69.1876
lradius 39.1717
lwrist -20.7003
lhand -31.5187 -14.9364
lfingers 7.12502
lthumb -4.78401 14.9896
rfemur 0.532889 4.82756 17.7324
rtibia 31.8674
rfoot -25.8682 16.4117
rtoes -7.53957
lfemur -31.8612 9.59901 -9.31777
ltibia 35.6268
lfoot 2.56469 -2.11803
ltoes -10.9129
87
root -8.42869 18.5244 0.0399185 710.154 79.1095 -10.3828
lowerback -1.7327 -1.27381 5.31759
upperback 11.35 -2.19803 4.71777
thorax 13.3347 -0.616231 1.9832
lowerneck 8.58893 2.32874 1.65981
upperneck 13.9599 5.43368 -15.0665
head 3.14238 2.66122 -4.89239
rclavicle 2.38542e-015 -3.97569e-014
rhumerus -20.7006 -8.21982 -79.4395
rradius 45.6319
rwrist 1.34543
rhand -9.33329 14.0191
rfingers 7.12502
rthumb 16.6256 -15.2888
lclavicle 2.38542e-015 -3.97569e-014
lhumerus -31.2209 -11.4439 69.1667
lradius 39.1854
lwrist -20.8287
lhand -31.6019 -15.0659
lfingers 7.12502
lthumb -4.86435 14.8582
rfemur 0.696808 4.70942 17.5688
rtibia 31.3637
rfoot -25.4408 16.6698
rtoes -7.34748
lfemur -31.9672 9.60805 -9.45031
ltibia 35.6643
lfoot 2.36242 -2.17081
ltoes -10.4256
88
root -8.35275 18.5428 0.00416364 709.928 79.0842 -10.901
lowerback -1.73049 -1.20425 5.21354
upperback 11.3349 -2.09178 4.6698
thorax 13.3147 -0.574933 2.00037
lowerneck 8.63169 2.27569 1.70916
upperneck 13.7832 5.32148 -15.0019
head 3.07194 2.61556 -4.88146
rclavicle -2.8625e-014 -2.22639e-014
rhumerus -20.7514 -8.4751 -79.4357
rradius 45.4307
rwrist 1.37029
rhand -9.30136 14.1406
rfingers 7.12502
rthumb 16.6563 -15.1648
lclavicle -2.8625e-014 -2.22639e-014
lhumerus -31.1642 -11.4624 69.0832
lradius 39.1984
lwrist -20.8811
lhand -31.6725 -15.0804
lfingers 7.12502
lthumb -4.9325 14.8422
rfemur 0.845123 4.59422 17.4441
rtibia 30.8758
rfoot -25.0257 16.8987
rtoes -7.28489
lfemur -32.078 9.64976 -9.53869
ltibia 35.7117
lfoot 2.15571 -2.24463
ltoes -10.0414
89
root -8.27615 18.5621 -0.0311385 709.713 79.0651 -11.4095
lowerback -1.73686 -1.1391 5.0863
upperback 11.3401 -1.99119 4.63139
thorax 13.3255 -0.538469 2.04131
lowerneck 8.64619 2.23075 1.72261
upperneck 13.5898 5.21543 -14.931
head 3.00112 2.57047 -4.86158
rclavicle 7.95139e-016 1.59028e-014
rhumerus -20.738 -8.72787 -79.433
rradius 45.1924
rwrist 1.37552
rhand -9.34214 14.2499
rfingers 7.12502
rthumb 16.6171 -15.0588
lclavicle 7.95139e-016 1.59028e-014
lhumerus -31.0465 -11.4075 68.9902
lradius 39.1961
lwrist -20.9711
lhand -31.709 -14.9866
lfingers 7.12502
lthumb -4.96772 14.9352
rfemur 0.975893 4.48179 17.3208
rtibia 30.4171
rfoot -24.5723 17.1196
rtoes -7.13385
lfemur -32.188 9.67447 -9.62816
ltibia 35.7614
lfoot 1.96181 -2.3237
ltoes -9.63426
